<svg width="18" height="18" viewBox="0 0 18 18" fill="none" xmlns="http://www.w3.org/2000/svg">
<path d="M0.25613 2.50539V4.05635H2.41901C3.01665 6.21874 4.08386 8.1127 5.62064 9.75314C4.14077 11.0655 2.26249 12.0199 0 12.6314L0.79685 14.0034C3.11625 13.3174 5.07992 12.2287 6.67362 10.7523C7.33393 11.3268 8.06788 11.8613 8.87545 12.3558C9.65807 11.0011 8.87545 12.2839 9.67246 11.0096C8.88243 10.5462 8.37753 10.2068 7.7266 9.66366C9.03571 8.15744 10.0318 6.29331 10.7148 4.05635H12.8634V2.50539H7.4847C7.05782 1.53604 6.58824 0.700913 6.07598 0L4.58189 0.566696C5.09415 1.17813 5.53526 1.81939 5.891 2.50539H0.25613ZM3.84196 4.05635H9.17801C8.62306 5.86083 7.78352 7.41179 6.67362 8.69431C5.36451 7.35214 4.42536 5.81609 3.84196 4.05635Z" fill="white"/>
<path d="M12.223 7.35205L8.33838 18H10.1171L11.042 15.3305H15.2966L16.2215 18H18.0002L14.1155 7.35205H12.223ZM11.54 13.8989L13.1479 9.2311H13.2049L14.7986 13.8989H11.54Z" fill="white"/>
</svg>
